<svg width="526" height="110" viewBox="0 0 526 110" fill="none" xmlns="http://www.w3.org/2000/svg">
<path fill-rule="evenodd" clip-rule="evenodd" d="M69.308 40.3291L60.1766 47.9909L50.7858 55.8709V52.2491V40.3291L1.58008 81.6182H15.7852L41.655 59.9109V63.5327V74.313L41.6514 75.4553L41.655 75.4527L49.9495 68.4928L50.7858 67.7909L60.1766 59.9109V67.0083V74.313H69.308H71.7431H72.0056H77.833C83.6051 74.313 87.9263 73.2673 90.7966 71.1868C93.6664 69.1063 95.1069 65.9694 95.1069 61.7764C95.1069 58.9061 94.36 56.5268 92.8554 54.6386C91.3621 52.7499 89.0785 51.3311 86.0273 50.3707C87.9155 49.5168 89.3669 48.3646 90.3588 46.9029C91.3512 45.4411 91.8418 43.3456 91.8418 41.4146C91.8418 37.7017 90.379 35.3075 87.4461 33.4167C84.5211 31.5306 80.1802 30.5894 74.4293 30.5894H71.7431H42.1083L33.3408 37.894H71.7431H72.016H74.9628C77.9018 37.894 78.2398 38.122 79.2131 38.9407C80.1921 39.7652 80.9447 41.3029 80.9447 42.989C80.9447 44.5149 80.555 45.8862 79.6401 46.7003C78.2941 47.8969 77.6816 48.0835 75.8084 48.0835H71.7431V55.3886H75.5815C78.5334 55.3886 79.5548 55.4605 81.228 56.6638C82.4969 57.5761 83.4516 59.5372 83.4516 61.4145C83.4516 62.9373 82.8799 64.3045 81.5272 65.5026C79.6706 67.1473 78.4838 67.0083 75.6456 67.0083H72.0056H71.7431H69.308V52.2491V40.3291V40.3291Z" fill="url(#paint0_radial)"/>
<path d="M8.89565 62.1573C8.98249 62.6442 8.98921 63.1223 8.91581 63.5906C8.84241 64.0595 8.67391 64.49 8.41029 64.8829C8.14668 65.2752 7.77555 65.6163 7.29743 65.9058C6.81879 66.1958 6.21455 66.4056 5.48367 66.5359L5.25572 66.5767C4.55534 66.7018 3.93817 66.7101 3.40475 66.601C2.8708 66.4925 2.41387 66.2991 2.03447 66.0211C1.65508 65.7435 1.35218 65.3972 1.12475 64.9821C0.897319 64.567 0.740184 64.1163 0.653347 63.6294C0.56651 63.142 0.557723 62.6649 0.626986 62.1966C0.696766 61.7288 0.861653 61.2988 1.12113 60.907C1.38113 60.5152 1.74243 60.1756 2.20556 59.8887C2.6687 59.6018 3.25071 59.3961 3.95058 59.271L4.17904 59.2302C4.90992 59.0994 5.54932 59.0875 6.09877 59.1935C6.6477 59.2994 7.11394 59.4912 7.49695 59.7683C7.88048 60.0453 8.18751 60.3911 8.41856 60.8051C8.64961 61.2197 8.80882 61.6704 8.89565 62.1573V62.1573ZM7.68562 62.3734C7.63496 62.0917 7.53675 61.8265 7.39047 61.5779C7.24368 61.3292 7.04002 61.122 6.77848 60.9566C6.51745 60.7912 6.19284 60.6785 5.80518 60.618C5.41751 60.5581 4.9611 60.5746 4.43594 60.6681L4.20747 60.709C3.70557 60.7989 3.29206 60.9375 2.96849 61.1251C2.6444 61.3122 2.39268 61.5283 2.21228 61.7722C2.03189 62.0167 1.91662 62.2808 1.86493 62.5646C1.81376 62.8489 1.81325 63.1316 1.86338 63.4133C1.91507 63.7023 2.01431 63.9716 2.16059 64.2202C2.30739 64.4688 2.50743 64.6766 2.7607 64.8431C3.01449 65.01 3.32514 65.1232 3.69317 65.1832C4.06119 65.2431 4.49641 65.2281 4.99883 65.1387L5.22678 65.0979C5.75194 65.0038 6.18664 64.8637 6.52985 64.6766C6.87358 64.4895 7.13926 64.2734 7.32741 64.0279C7.51504 63.7819 7.63444 63.5172 7.68613 63.2335C7.7373 62.9492 7.73731 62.6623 7.68562 62.3734V62.3734ZM1.9342 56.6886L3.39492 56.6519L3.43317 58.1587L1.97245 58.1959L0.143178 56.9662L0.125604 56.2705L1.9342 56.6886ZM6.99815 54.9214L1.5243 50.1324L1.2028 54.3642L0 54.2732L0.448142 48.376L1.53516 48.4582L7.00953 53.2477L7.3486 48.7844L8.5514 48.8753L8.08517 55.0041L6.99815 54.9214V54.9214ZM0.822887 45.545L1.55273 42.3811C1.76001 41.4849 2.10374 40.8718 2.58444 40.5426C3.06463 40.2128 3.62546 40.1223 4.26588 40.2702C4.67216 40.3637 4.99625 40.5498 5.23763 40.8279C5.47902 41.1055 5.62116 41.4435 5.66407 41.8425C5.87754 41.3996 6.17578 41.0781 6.55932 40.877C6.94285 40.6759 7.39099 40.6341 7.90323 40.7524C8.23455 40.8289 8.52556 40.9519 8.77625 41.1205C9.02694 41.2895 9.22439 41.5076 9.36912 41.7754C9.51385 42.0426 9.60069 42.362 9.62963 42.7337C9.6591 43.1053 9.61723 43.5364 9.50403 44.0259L8.73232 47.3707L0.822887 45.545V45.545ZM8.29503 43.9018C8.43097 43.3141 8.42994 42.8872 8.29296 42.6215C8.15598 42.3558 7.89134 42.178 7.50005 42.0876C7.31139 42.0441 7.13616 42.0312 6.97334 42.0493C6.81052 42.0674 6.66424 42.1248 6.53451 42.2219C6.40528 42.3191 6.29105 42.4613 6.19233 42.6484C6.09308 42.836 6.00986 43.0769 5.94215 43.3705L5.51985 45.2008L7.87015 45.7435L8.29503 43.9018ZM4.81327 43.3121C4.93474 42.7848 4.92181 42.3951 4.77347 42.1429C4.62564 41.8901 4.3858 41.7257 4.05447 41.6492C3.7154 41.5712 3.43421 41.613 3.20988 41.7759C2.98607 41.9382 2.81239 42.2871 2.68885 42.8221L2.31101 44.4601L4.4349 44.9506L4.81327 43.3121V43.3121ZM3.12563 36.8112L5.12495 31.741L6.2466 32.1835L4.75796 35.9593L6.74281 36.7419L8.1043 33.2896L9.22594 33.732L7.86498 37.1844L10.0659 38.0517L11.5545 34.2763L12.6767 34.7183L10.6774 39.789L3.12563 36.8112V36.8112ZM6.46369 29.1958L7.15736 27.9894L10.5151 29.9205L8.86826 25.0142L9.70096 23.5664L11.0614 27.8535L16.8537 27.4115L16.0096 28.879L11.4336 29.1374L11.9329 30.7351L14.1948 32.0356L13.5011 33.242L6.46369 29.1958V29.1958ZM11.5483 21.366L12.4079 20.2718L18.7905 25.2876L17.9309 26.3814L11.5483 21.366V21.366ZM22.1931 21.7356C21.8127 22.0984 21.4426 22.3708 21.0823 22.5538C20.7226 22.7368 20.3773 22.8417 20.0455 22.8696C19.7141 22.897 19.4009 22.8567 19.1052 22.7487C18.8101 22.6407 18.5336 22.4737 18.2767 22.2489L19.2836 21.289C19.418 21.3851 19.557 21.4554 19.7012 21.4999C19.8449 21.5443 20.002 21.5547 20.1721 21.5314C20.3422 21.5082 20.5225 21.4425 20.7138 21.335C20.905 21.2275 21.1154 21.0647 21.3449 20.846C21.5796 20.6217 21.76 20.4103 21.8851 20.2108C22.0101 20.0112 22.0908 19.8272 22.1275 19.6587C22.1647 19.4902 22.16 19.3341 22.114 19.1909C22.0686 19.0478 21.9921 18.9201 21.8856 18.8079C21.624 18.534 21.2994 18.4482 20.9112 18.551C20.5236 18.6539 20.0077 18.9056 19.3637 19.3057C18.9977 19.5269 18.653 19.7032 18.3299 19.8345C18.0068 19.9663 17.7019 20.0386 17.4145 20.051C17.1271 20.0629 16.8506 20.0112 16.5854 19.8955C16.3202 19.7802 16.0597 19.5879 15.8039 19.3191C15.5956 19.101 15.4446 18.8498 15.35 18.566C15.2554 18.2823 15.2286 17.9819 15.2689 17.6661C15.3092 17.3498 15.4224 17.0231 15.608 16.6856C15.794 16.3486 16.0628 16.0116 16.4153 15.6756C16.757 15.3499 17.0935 15.1039 17.4253 14.9369C17.7577 14.77 18.0797 14.6739 18.3919 14.6485C18.7046 14.6232 19.0029 14.6614 19.2877 14.7638C19.572 14.8667 19.8377 15.0248 20.0842 15.2383L19.0768 16.1987C18.8292 16.0286 18.5522 15.9645 18.2451 16.0064C17.9376 16.0483 17.6104 16.2343 17.2636 16.5651C16.8609 16.9492 16.6381 17.2955 16.5952 17.6036C16.5523 17.9111 16.6242 18.1634 16.8108 18.3588C17.0666 18.6275 17.3711 18.7221 17.7226 18.643C18.0746 18.564 18.5279 18.3505 19.083 18.0031C19.4939 17.7504 19.8744 17.5478 20.2253 17.3948C20.5763 17.2418 20.9066 17.1539 21.2162 17.1311C21.5253 17.1084 21.8168 17.1539 22.0903 17.2671C22.3637 17.3803 22.6315 17.5736 22.8925 17.8481C23.122 18.0884 23.2879 18.3577 23.3902 18.6554C23.4926 18.9532 23.5189 19.2695 23.4698 19.6045C23.4213 19.9399 23.2926 20.2867 23.0842 20.6455C22.8759 21.0042 22.5792 21.3676 22.1931 21.7356V21.7356ZM22.8232 11.9007L20.6021 13.4798L19.9033 12.4972L25.4795 8.53218L26.1783 9.51479L23.9573 11.0944L27.9626 16.7269L26.8286 17.5333L22.8232 11.9007V11.9007ZM33.6613 13.4008C33.2209 13.6266 32.7661 13.7729 32.2962 13.8396C31.8269 13.9063 31.3658 13.8711 30.913 13.7336C30.4608 13.5961 30.0261 13.3413 29.6089 12.9681C29.1923 12.5954 28.8145 12.0786 28.4764 11.418L28.3705 11.2117C28.0464 10.5785 27.8582 9.99084 27.8065 9.44863C27.7543 8.90641 27.806 8.4133 27.9606 7.96929C28.1151 7.52528 28.3581 7.13348 28.6884 6.79492C29.0186 6.45636 29.4037 6.17465 29.8446 5.94877C30.2845 5.72341 30.7388 5.57558 31.2066 5.50528C31.6744 5.43499 32.1339 5.46703 32.5847 5.60091C33.0354 5.73478 33.4654 5.98134 33.8753 6.34006C34.2852 6.6993 34.6522 7.19551 34.9763 7.82818L35.0823 8.03494C35.4203 8.69552 35.6188 9.3039 35.6782 9.86007C35.7372 10.4157 35.6901 10.9176 35.5371 11.3652C35.3841 11.8129 35.1433 12.2078 34.8145 12.5494C34.4863 12.8916 34.1017 13.1754 33.6613 13.4008V13.4008ZM33.101 12.307C33.3553 12.1762 33.5802 12.0046 33.775 11.7922C33.9704 11.5792 34.1084 11.3239 34.1906 11.0257C34.2723 10.7274 34.2852 10.3842 34.2299 9.99601C34.1741 9.60731 34.0247 9.17571 33.7818 8.70121L33.6758 8.49445C33.4432 8.04062 33.1899 7.68604 32.916 7.43121C32.642 7.17587 32.3619 6.99806 32.076 6.89726C31.7897 6.79595 31.5033 6.76287 31.2165 6.79647C30.9301 6.83059 30.6592 6.91277 30.4049 7.04303C30.1434 7.1769 29.9149 7.35058 29.7201 7.56302C29.5252 7.77598 29.3846 8.0277 29.2993 8.31922C29.214 8.61023 29.1965 8.94104 29.2471 9.3101C29.2972 9.67968 29.4384 10.0916 29.671 10.5455L29.7769 10.7522C30.0199 11.2267 30.2814 11.6015 30.5605 11.8749C30.8396 12.1489 31.1244 12.3401 31.4139 12.4476C31.7039 12.5556 31.9918 12.5923 32.2787 12.5587C32.565 12.5246 32.8395 12.4409 33.101 12.307V12.307ZM35.9827 3.20616L37.277 2.83865L42.6981 7.32628L41.1144 1.74905L42.4526 1.36862L44.67 9.17726L43.3763 9.54477L37.9551 5.05714L39.5389 10.6349L38.2001 11.0148L35.9827 3.20616V3.20616ZM49.9873 0.0795037L53.0591 0.00197039C53.5693 -0.0109518 54.0169 0.0397033 54.4025 0.153419C54.7886 0.267651 55.1117 0.433572 55.3722 0.651182C55.6332 0.868793 55.8333 1.13034 55.9723 1.43634C56.1114 1.74233 56.1858 2.08038 56.1951 2.45151C56.2091 3.00768 56.0705 3.49304 55.7795 3.90603C55.4885 4.31954 55.0435 4.62295 54.4454 4.81575L56.5683 8.03339L55.0378 8.07215L53.1625 5.01062L51.5048 5.05249L51.5834 8.15951L50.1925 8.19465L49.9873 0.0795037V0.0795037ZM52.9247 3.85641C53.6355 3.83883 54.1291 3.71013 54.4056 3.47133C54.6816 3.23201 54.8145 2.90378 54.8041 2.48665C54.7933 2.06952 54.6439 1.74802 54.356 1.52369C54.0681 1.29884 53.5688 1.19547 52.8575 1.21356L51.4087 1.25026L51.4754 3.89311L52.9247 3.85641V3.85641ZM59.5306 0.0857063L64.9372 0.773168L64.7853 1.96925L60.7592 1.45753L60.4899 3.57419L64.1712 4.04197L64.0192 5.23857L60.338 4.77078L60.0397 7.11746L64.0663 7.62918L63.9143 8.82578L58.5071 8.13831L59.5306 0.0857063V0.0857063ZM68.1487 10.0622C67.6431 9.91848 67.2203 9.73808 66.8802 9.52099C66.5396 9.3039 66.2734 9.05941 66.0816 8.78804C65.8893 8.51668 65.7648 8.22618 65.7084 7.91657C65.6516 7.60695 65.6547 7.28441 65.7177 6.94895L67.0565 7.32887C67.042 7.49375 67.0518 7.64934 67.0865 7.79562C67.1216 7.94241 67.1919 8.08301 67.2984 8.2174C67.4049 8.35231 67.5527 8.47429 67.7424 8.58491C67.9326 8.695 68.1797 8.79321 68.4846 8.87953C68.7968 8.96844 69.0708 9.01599 69.306 9.02271C69.5412 9.02891 69.7407 9.00565 69.9045 8.95138C70.0689 8.89762 70.2007 8.8144 70.301 8.70224C70.4013 8.59007 70.4726 8.45982 70.5145 8.31095C70.6178 7.94655 70.5269 7.62349 70.2415 7.34127C69.9557 7.05957 69.4771 6.74271 68.8056 6.39123C68.4293 6.18809 68.1021 5.9803 67.8251 5.7689C67.5475 5.55749 67.3304 5.33109 67.1738 5.09022C67.0172 4.84883 66.9216 4.58419 66.8864 4.29731C66.8518 4.00992 66.8849 3.6879 66.9862 3.33073C67.0684 3.04076 67.2079 2.78335 67.4049 2.55798C67.6013 2.3321 67.8463 2.15688 68.1388 2.03076C68.4319 1.90515 68.771 1.83641 69.1556 1.82555C69.5406 1.81418 69.9676 1.87517 70.4359 2.00801C70.8897 2.13672 71.2727 2.30212 71.5849 2.50319C71.8977 2.70426 72.1442 2.93325 72.3246 3.18911C72.505 3.44548 72.6234 3.72202 72.6797 4.01923C72.7355 4.31644 72.7345 4.62554 72.6756 4.94653L71.3368 4.56661C71.3575 4.26682 71.2717 3.99545 71.0799 3.752C70.8877 3.50854 70.5615 3.32143 70.0999 3.19066C69.5649 3.03869 69.1535 3.02215 68.8661 3.14155C68.5792 3.26095 68.3988 3.45065 68.3249 3.71116C68.2236 4.06833 68.296 4.37795 68.543 4.64105C68.7896 4.90414 69.2041 5.18636 69.7851 5.48771C70.2116 5.71359 70.5796 5.93844 70.8892 6.16328C71.1993 6.38761 71.4428 6.62745 71.6196 6.88279C71.7958 7.13762 71.9049 7.41209 71.9462 7.70516C71.9876 7.99824 71.9566 8.32698 71.8532 8.69087C71.7622 9.01082 71.6149 9.29046 71.4102 9.52978C71.2055 9.7691 70.9466 9.95259 70.6328 10.0803C70.3191 10.2085 69.9552 10.2736 69.5406 10.2767C69.1261 10.2793 68.6619 10.2079 68.1487 10.0622ZM76.0834 4.09056L78.778 5.30887C79.7714 5.75804 80.4077 6.30233 80.6868 6.94172C80.9665 7.58111 80.9437 8.2603 80.6186 8.97877C80.294 9.69725 79.7993 10.163 79.1346 10.3759C78.4699 10.5889 77.6408 10.4705 76.6473 10.0213L75.2212 9.37678L74.0076 12.0605L72.7397 11.4872L76.0834 4.09056V4.09056ZM77.0386 8.87488C77.37 9.02478 77.6599 9.12402 77.9091 9.17312C78.1587 9.22223 78.3732 9.22585 78.5531 9.18398C78.7335 9.14263 78.8875 9.05527 79.0152 8.92243C79.1434 8.78908 79.255 8.61695 79.3507 8.40554C79.4463 8.19414 79.5011 7.99824 79.5145 7.81784C79.5285 7.63745 79.4923 7.46429 79.406 7.29785C79.3202 7.13193 79.176 6.97118 78.9744 6.81663C78.7733 6.66208 78.5066 6.5096 78.1758 6.36022L76.8546 5.76269L75.718 8.27787L77.0386 8.87488V8.87488ZM82.1326 16.8303C81.7232 16.5388 81.3919 16.2178 81.1386 15.8668C80.8853 15.5164 80.7225 15.1442 80.6506 14.7519C80.5788 14.3591 80.6021 13.9466 80.7204 13.5134C80.8383 13.0803 81.0631 12.6311 81.395 12.1649L84.2172 8.19569L85.3517 9.00203L82.5761 12.9051C82.1326 13.5289 81.9387 14.081 81.9951 14.5622C82.0514 15.0434 82.3347 15.4657 82.8448 15.8286C83.3617 16.1956 83.8548 16.3258 84.3247 16.2188C84.7945 16.1118 85.2489 15.7495 85.6877 15.1323L88.4701 11.2195L89.6042 12.0263L86.7815 15.9955C86.4501 16.4618 86.0992 16.8215 85.7291 17.0753C85.359 17.3291 84.9765 17.4862 84.5821 17.5478C84.1877 17.6087 83.7835 17.5772 83.369 17.4532C82.9544 17.3291 82.5419 17.1213 82.1326 16.8303V16.8303ZM91.6604 13.8551L94.0107 16.0958C94.6764 16.7306 95.0284 17.3389 95.0672 17.9204C95.1054 18.5019 94.8982 19.0302 94.4443 19.5057C94.1564 19.8081 93.8313 19.9921 93.4695 20.0583C93.1071 20.1244 92.7438 20.0743 92.3788 19.9079C92.6512 20.3167 92.7758 20.738 92.7536 21.1701C92.7308 21.6027 92.5386 22.009 92.1757 22.39C91.941 22.636 91.6872 22.8236 91.4138 22.9534C91.1409 23.0831 90.8525 23.1415 90.5485 23.1296C90.2451 23.1177 89.9257 23.0299 89.5907 22.8655C89.2563 22.7016 88.9069 22.4458 88.5435 22.099L86.0588 19.7306L91.6604 13.8551V13.8551ZM89.2667 21.122C89.7029 21.5381 90.0704 21.7552 90.3687 21.7728C90.6674 21.7899 90.9553 21.6534 91.2324 21.3624C91.3657 21.2223 91.4665 21.0781 91.5337 20.9287C91.6014 20.7793 91.6263 20.6243 91.6087 20.4635C91.5911 20.3028 91.527 20.1317 91.4164 19.9513C91.3053 19.7709 91.1409 19.5765 90.9223 19.3682L89.5628 18.0719L87.8985 19.8179L89.2667 21.122ZM91.5482 18.4265C91.9395 18.8002 92.2817 18.9873 92.5742 18.9888C92.8668 18.9899 93.1304 18.8674 93.3651 18.6213C93.6054 18.3696 93.7124 18.106 93.6871 17.8305C93.6612 17.5545 93.4498 17.2273 93.0523 16.8489L91.8356 15.6885L90.3309 17.2666L91.5482 18.4265V18.4265ZM98.2135 20.7214L99.0198 21.8555L93.3873 25.8609L95.6725 29.0738L94.6893 29.7732L91.5983 25.4257L98.2135 20.7214ZM102.548 27.182L103.242 28.3885L96.2043 32.4347L95.5112 31.2282L102.548 27.182V27.182ZM104.743 30.9739L105.253 32.2682L101.65 33.6891L106.512 35.4616L107.125 37.0153L102.925 35.4052L99.6582 40.2081L99.0369 38.6332L101.689 34.895L100.129 34.2887L97.7012 35.246L97.1911 33.9512L104.743 30.9739V30.9739ZM102.933 45.7011L102.192 42.4918L100.253 42.2375L99.9399 40.8811L108.54 42.0503L108.854 43.4061L101.635 48.2261L101.301 46.7799L102.933 45.7011V45.7011ZM103.469 42.6613L104.006 44.9889L106.994 43.0851L103.469 42.6613V42.6613ZM101.711 51.7668C101.67 51.2427 101.694 50.7837 101.78 50.3893C101.866 49.9949 102.004 49.661 102.192 49.3871C102.381 49.1126 102.611 48.8955 102.882 48.7353C103.152 48.5755 103.456 48.467 103.793 48.4101L103.898 49.798C103.739 49.8409 103.596 49.9039 103.471 49.9872C103.345 50.0704 103.238 50.1856 103.148 50.3319C103.058 50.4782 102.995 50.6596 102.957 50.8752C102.919 51.0918 102.912 51.3574 102.936 51.6738C102.961 51.9973 103.011 52.2708 103.086 52.4941C103.161 52.7169 103.252 52.8962 103.359 53.0311C103.467 53.1665 103.59 53.2617 103.73 53.317C103.87 53.3723 104.017 53.394 104.171 53.3826C104.548 53.3537 104.82 53.1567 104.987 52.7913C105.153 52.4258 105.285 51.8671 105.383 51.1155C105.444 50.6922 105.525 50.3138 105.628 49.9804C105.73 49.6471 105.868 49.3653 106.04 49.1348C106.213 48.9048 106.428 48.7239 106.685 48.5916C106.943 48.4598 107.256 48.3796 107.627 48.3517C107.927 48.3285 108.217 48.3703 108.496 48.4773C108.776 48.5838 109.025 48.7528 109.244 48.9844C109.464 49.216 109.645 49.5101 109.789 49.8678C109.932 50.2249 110.022 50.6467 110.059 51.1321C110.095 51.6024 110.072 52.019 109.991 52.3819C109.91 52.7442 109.781 53.0549 109.603 53.3128C109.424 53.5702 109.206 53.777 108.946 53.9326C108.687 54.0876 108.396 54.1931 108.075 54.2484L107.969 52.8611C108.258 52.7773 108.483 52.6031 108.645 52.3385C108.807 52.0744 108.87 51.7032 108.833 51.2256C108.791 50.6705 108.664 50.2787 108.453 50.0507C108.242 49.8223 108.002 49.7184 107.732 49.7391C107.362 49.767 107.096 49.9427 106.934 50.2647C106.773 50.5873 106.651 51.0731 106.568 51.7234C106.504 52.201 106.42 52.6243 106.316 52.9924C106.212 53.3609 106.071 53.6721 105.893 53.9259C105.715 54.1802 105.495 54.3771 105.234 54.5172C104.973 54.6567 104.654 54.7415 104.277 54.7699C103.945 54.7953 103.632 54.7534 103.336 54.6438C103.041 54.5342 102.78 54.3549 102.551 54.1047C102.323 53.8545 102.136 53.5351 101.99 53.1469C101.844 52.7587 101.751 52.2987 101.711 51.7668V51.7668ZM110.036 56.5992L110.001 57.9907L101.886 57.7855L101.921 56.394L110.036 56.5992Z" fill="#E4A216"/>
<path d="M19.1274 85.0323L20.1193 86.0733L18.4208 91.2654L23.6885 89.8166L24.6483 90.8235L18.7734 96.425L17.813 95.4176L21.9259 91.497L17.5499 92.7049L16.9095 92.033L18.3247 87.7201L14.2123 91.6407L13.252 90.6338L19.1274 85.0323V85.0323ZM26.1597 99.5036L23.4755 97.5947L21.8561 98.6915L20.722 97.8847L27.9311 93.0507L29.0651 93.8571L26.8652 102.253L25.6552 101.393L26.1597 99.5036ZM24.5434 96.8742L26.49 98.2584L27.4617 94.8511L24.5434 96.8742ZM32.3412 96.0229L35.1412 97.2887C35.6064 97.4986 35.9878 97.7389 36.2855 98.0093C36.5833 98.2796 36.8019 98.5696 36.942 98.8792C37.0821 99.1883 37.1487 99.5108 37.141 99.8468C37.1332 100.183 37.0531 100.52 36.9001 100.858C36.6706 101.365 36.3352 101.742 35.8932 101.987C35.4513 102.233 34.9189 102.312 34.2966 102.226L34.8088 106.047L33.4142 105.416L33.0565 101.844L31.5457 101.161L30.2653 103.993L28.9974 103.42L32.3412 96.0229ZM33.3439 100.701C33.9921 100.994 34.4925 101.093 34.845 100.998C35.198 100.903 35.4601 100.665 35.6322 100.285C35.8043 99.9042 35.8095 99.5506 35.6477 99.2229C35.4859 98.8952 35.0812 98.5851 34.433 98.292L33.1124 97.695L32.0233 100.104L33.3439 100.701V100.701ZM39.6159 99.2022L40.9546 99.5827L39.8965 103.308L44.2565 100.52L45.863 100.976L42.0344 103.337L43.8688 108.848L42.2401 108.386L40.8791 104.009L39.4499 104.881L38.7377 107.391L37.3989 107.011L39.6159 99.2022V99.2022ZM51.2247 107.878L47.9409 107.628L47.12 109.403L45.7322 109.298L49.4119 101.436L50.7993 101.542L53.2483 109.869L51.7684 109.757L51.2247 107.878V107.878ZM48.4836 106.46L50.8654 106.641L49.9392 103.221L48.4836 106.46V106.46ZM55.1205 108.913L59.0271 102.778L54.7948 103.1L54.7033 101.897L60.6005 101.449L60.6832 102.536L56.7771 108.671L61.2404 108.331L61.3319 109.534L55.2032 110L55.1205 108.913V108.913ZM62.6898 101.122L64.0595 100.877L65.4867 108.869L64.1169 109.114L62.6898 101.122V101.122ZM69.9262 104.596L65.3621 100.876L66.9215 100.348L70.1609 103.047L70.9419 98.9877L72.3918 98.4972L71.2443 104.15L72.2476 107.116L70.9295 107.562L69.9262 104.596ZM76.0917 96.8478L78.9061 95.2294C79.7037 94.7709 80.387 94.6055 80.9551 94.7332C81.5236 94.8614 81.9718 95.2103 82.2995 95.7799C82.5073 96.1417 82.592 96.5056 82.5528 96.8716C82.5135 97.2375 82.362 97.572 82.0995 97.8744C82.5688 97.7296 83.0076 97.7291 83.416 97.8733C83.8243 98.0175 84.1598 98.3173 84.4218 98.7732C84.5914 99.0678 84.6994 99.3645 84.7464 99.6633C84.7935 99.9621 84.7676 100.255 84.6705 100.543C84.5728 100.831 84.3981 101.112 84.1453 101.387C83.8931 101.661 83.5488 101.924 83.1136 102.174L80.1379 103.885L76.0917 96.8478V96.8478ZM82.3817 101.204C82.9043 100.903 83.2165 100.612 83.3178 100.331C83.4191 100.049 83.3695 99.7346 83.1694 99.3862C83.0728 99.2188 82.9627 99.0813 82.8386 98.9743C82.7146 98.8673 82.5729 98.7996 82.4137 98.7706C82.2545 98.7417 82.0726 98.7551 81.8679 98.8099C81.6637 98.8652 81.4306 98.9681 81.1691 99.1185L79.5403 100.055L80.7431 102.146L82.3817 101.204V101.204ZM80.4433 98.2517C80.9127 97.9819 81.1892 97.7069 81.2735 97.4267C81.3572 97.1466 81.3148 96.8587 81.1448 96.564C80.9716 96.2622 80.7493 96.0849 80.4775 96.0316C80.2061 95.9779 79.8324 96.088 79.3568 96.3614L77.8987 97.1998L78.9857 99.0896L80.4433 98.2517V98.2517ZM89.9686 95.0356L87.379 97.0706L87.9729 98.934L86.8786 99.7936L84.2797 91.5125L85.3734 90.6524L92.8058 95.1364L91.6386 96.0534L89.9686 95.0356V95.0356ZM86.9892 95.843L88.8676 94.3667L85.8738 92.4718L86.9892 95.843V95.843ZM88.0597 88.3409L88.9405 87.3241L95.935 88.1052L91.5523 84.3091L92.4636 83.2573L98.5991 88.5719L97.7183 89.5886L90.7237 88.8076L95.1064 92.6042L94.1952 93.6555L88.0597 88.3409ZM93.5651 81.9066L94.2587 80.7002L97.6165 82.6313L95.9696 77.7245L96.8018 76.2772L98.1628 80.5643L103.955 80.1223L103.111 81.5898L98.5344 81.8482L99.0338 83.4459L101.296 84.7464L100.602 85.9528L93.5651 81.9066V81.9066ZM97.6635 74.3761L98.2367 73.1082L105.633 76.4519L105.06 77.7203L97.6635 74.3761Z" fill="#E4A216"/>
<path fill-rule="evenodd" clip-rule="evenodd" d="M104.468 64.4802C106.035 64.4802 107.306 65.7513 107.306 67.319C107.306 68.8867 106.035 70.1578 104.468 70.1578C102.9 70.1578 101.629 68.8867 101.629 67.319C101.629 65.7513 102.9 64.4802 104.468 64.4802Z" fill="#E4A216"/>
<path d="M172.297 78.9556C172.541 82.8994 172.363 82.8994 169.184 83.0478C168.893 83.3383 168.893 84.4087 169.184 84.7023C171.482 84.655 175.882 84.6044 177.35 84.6044C178.814 84.6044 181.055 84.655 182.678 84.7023C182.97 84.4087 182.97 83.3383 182.678 83.0478C179.353 82.8994 179.198 82.7446 178.922 78.7124L177.464 58.2135C177.251 55.5833 177.495 54.9486 180.82 54.756C181.112 54.4624 181.112 53.392 180.82 53.0983L170.994 53.1962L161.707 74.816H161.463L152.711 53.1962L142.691 53.0983C142.396 53.392 142.396 54.4624 142.691 54.756C146.064 54.9486 146.355 54.9991 146.013 58.6493L144.051 78.7124C143.766 81.6332 143.179 82.8046 140.393 83.0478C140.098 83.3383 140.098 84.4087 140.393 84.7023C141.857 84.655 143.423 84.6044 144.596 84.6044C145.769 84.6044 148.704 84.655 150.169 84.7023C150.463 84.4087 150.463 83.3383 150.169 83.0478C146.942 82.8046 146.682 81.3585 146.942 78.6145L148.222 60.3544H148.425L158.039 84.3613C158.179 84.7023 158.724 84.996 159.019 84.996C159.31 84.996 159.76 84.8002 159.947 84.3613L170.943 58.6019H171.042L172.297 78.9556V78.9556ZM198.286 82.2426C198.613 84.2161 199.934 85.0907 202.083 85.0907C204.781 85.0907 206.68 84.0708 208.486 82.3657C208.372 81.7974 208.169 81.4058 207.608 81.0017C206.971 81.4879 206.483 81.6837 205.554 81.6837C204.48 81.6837 204.185 80.8059 204.185 78.4219L204.283 71.409C204.283 64.396 199.934 62.9846 195.915 62.9846C192.333 62.9846 186.834 65.0118 186.834 68.2262C186.834 69.6218 187.426 70.6859 189.366 70.6859C191.094 70.6859 192.406 69.6155 192.406 68.4377C192.406 67.7967 192.064 66.9758 192.178 66.1327C192.251 65.5991 192.599 65.0307 194.248 65.0307C196.308 65.0307 198.026 65.9054 198.026 72.091L194.742 73.1141C189.601 74.7181 186 76.1327 186 79.9786C186 83.3383 187.857 85.0907 192.111 85.0907C193.528 85.0907 196.365 83.534 197.979 82.2678L198.286 82.2426V82.2426ZM198.026 73.9887V80.4175C196.806 81.39 195.582 82.17 194.704 82.17C192.599 82.17 191.867 80.7585 191.867 79.2492C191.867 77.4462 192.023 75.9464 195.484 74.816L198.026 73.9887V73.9887ZM212.252 69.5587V89.9597C212.252 94.0013 211.713 94.0992 208.734 94.3424C208.439 94.636 208.439 95.7064 208.734 96.0001C210.785 95.9496 212.823 95.9022 215.428 95.9022C218.037 95.9022 220.024 95.9496 222.126 96.0001C222.421 95.7064 222.421 94.636 222.126 94.3424C219.143 94.1497 218.608 94.0013 218.608 89.9597V84.2634C219.657 84.8002 220.709 85.0907 221.882 85.0907C229.337 85.0907 234.152 80.247 234.152 73.0636C234.152 70.3544 233.116 67.3168 231.22 65.4191C229.508 63.7077 227.055 62.9846 224.522 62.9846C223.105 62.9846 220.465 64.6897 218.753 66.2464H218.478C218.363 64.8665 218.214 63.8119 218.214 63.8119C218.167 63.2183 217.777 62.9846 217.092 62.9846C215.282 63.4709 212.35 64.1529 208.978 64.5918C208.879 64.8823 208.978 65.858 209.073 66.1485C211.739 66.3916 212.252 66.7832 212.252 69.5587V69.5587ZM218.608 81.4406V68.9587C218.608 68.6966 218.598 68.4314 218.592 68.163C219.999 66.8968 221.809 66.2464 222.957 66.2464C224.963 66.2464 227.309 68.6809 227.309 74.3803C227.309 78.4693 225.841 83.0478 221.59 83.0478C221.051 83.0478 219.828 82.7541 218.608 81.4406V81.4406ZM246.47 73.8908C247.643 73.7929 249.453 74.5729 250.236 76.2306C250.822 77.4968 251.798 79.9312 252.873 81.7816C254.293 84.3613 255.954 84.7023 258.201 84.7023L262.554 84.6044C262.813 84.1087 262.87 83.6066 262.554 83.0478C260.645 82.8267 259.964 82.3657 258.544 79.7828C257.079 77.1557 256.442 75.498 255.71 74.5255C254.635 73.1141 253.364 72.5268 252.239 72.2363V71.9931C253.038 71.2953 253.764 70.4586 254.341 69.6565C255.628 67.8283 256.645 67.4557 258.154 67.9009C259.736 68.3651 261.641 67.0989 261.381 65.176C261.152 63.5372 260.208 62.9846 258.544 62.9846C256.493 62.9846 254.829 64.835 253.9 66.1485C252.971 67.4652 251.26 69.6565 250.382 70.4838C249.11 71.6995 247.595 72.2363 246.47 72.2836V69.6565C246.47 65.6149 247.253 65.176 249.256 65.0307C249.551 64.7371 249.551 63.6667 249.256 63.373C248.182 63.4235 245.64 63.4709 243.294 63.4709C240.606 63.4709 238.454 63.4235 236.352 63.373C236.057 63.6667 236.057 64.7371 236.352 65.0307C239.335 65.176 240.115 65.6149 240.115 69.6565V78.4219C240.115 82.4636 239.335 82.8994 236.352 83.0478C236.057 83.3383 236.057 84.4087 236.352 84.7023C238.406 84.655 240.606 84.6044 243.294 84.6044C245.64 84.6044 248.134 84.655 249.256 84.7023C249.551 84.4087 249.551 83.3383 249.256 83.0478C247.253 82.8994 246.47 82.4636 246.47 78.4219V73.8908V73.8908ZM277.724 82.2426C278.051 84.2161 279.369 85.0907 281.522 85.0907C284.216 85.0907 286.115 84.0708 287.925 82.3657C287.81 81.7974 287.608 81.4058 287.043 81.0017C286.409 81.4879 285.918 81.6837 284.989 81.6837C283.915 81.6837 283.623 80.8059 283.623 78.4219L283.718 71.409C283.718 64.396 279.369 62.9846 275.353 62.9846C271.768 62.9846 266.269 65.0118 266.269 68.2262C266.269 69.6218 266.864 70.6859 268.801 70.6859C270.529 70.6859 271.841 69.6155 271.841 68.4377C271.841 67.7967 271.499 66.9758 271.613 66.1327C271.686 65.5991 272.038 65.0307 273.683 65.0307C275.743 65.0307 277.464 65.9054 277.464 72.091L274.18 73.1141C269.039 74.7181 265.438 76.1327 265.438 79.9786C265.438 83.3383 267.296 85.0907 271.549 85.0907C272.966 85.0907 275.8 83.534 277.413 82.2678L277.724 82.2426V82.2426ZM277.464 73.9887V80.4175C276.241 81.39 275.017 82.17 274.139 82.17C272.038 82.17 271.302 80.7585 271.302 79.2492C271.302 77.4462 271.457 75.9464 274.922 74.816L277.464 73.9887V73.9887ZM297.751 85.0907C304.839 85.0907 307.527 81.9268 307.527 78.4693C307.527 74.5887 303.403 73.3888 302.068 73.1614L302.052 73.0162C305.181 72.3594 306.696 70.2407 306.696 68.3398C306.696 63.9098 302.442 62.9846 298.093 62.9846C295.402 62.9846 292.324 63.4709 290.758 64.1529C290.318 65.7096 290.026 67.5599 290.026 69.3155C290.514 69.6565 291.053 69.7039 291.931 69.5587C293.155 66.5874 295.06 65.0307 297.31 65.0307C299.168 65.0307 300.293 66.2211 300.293 68.5356C300.293 70.5564 300.268 72.1889 296.822 72.1889H295.307C294.965 72.1889 294.572 72.4794 294.572 72.9657C294.572 73.4046 294.866 74.3297 295.307 74.3297H297.995C300.439 74.3297 300.879 76.5716 300.879 78.8103C300.879 82.2426 298.946 83.0478 297.653 83.0478C295.893 83.0478 295.085 82.1447 294.426 80.2723C294.042 79.2082 293.155 78.2735 291.785 78.2735C290.416 78.2735 289.731 79.3471 289.731 80.6606C289.731 82.5583 292.641 85.0907 297.751 85.0907V85.0907ZM320.97 80.9543C320.824 80.9543 320.675 80.8564 320.675 80.367V69.6565C320.675 65.6149 321.458 65.176 323.461 65.0307C323.756 64.7371 323.756 63.6667 323.461 63.373C322.339 63.4235 319.822 63.4709 317.499 63.4709C314.795 63.4709 312.611 63.4235 310.557 63.373C310.262 63.6667 310.262 64.7371 310.557 65.0307C313.54 65.176 314.323 65.6149 314.323 69.6565V78.4219C314.323 82.4636 313.54 82.8994 310.557 83.0478C310.262 83.3383 310.262 84.4087 310.557 84.7023C312.658 84.655 314.795 84.6044 317.499 84.6044C319.061 84.6044 320.431 84.655 321.508 84.7023C321.654 84.3139 321.743 84.0708 321.898 83.6793L328.447 67.1242C328.596 67.1242 328.742 67.2221 328.742 67.7083V78.4219C328.742 82.4636 327.959 82.8994 325.956 83.0478C325.661 83.3383 325.661 84.4087 325.956 84.7023C327.081 84.655 329.598 84.6044 331.918 84.6044C334.625 84.6044 336.809 84.655 338.86 84.7023C339.155 84.4087 339.155 83.3383 338.86 83.0478C335.877 82.8994 335.097 82.4636 335.097 78.4219V69.6565C335.097 65.6149 335.877 65.176 338.86 65.0307C339.155 64.7371 339.155 63.6667 338.86 63.373C336.758 63.4235 334.625 63.4709 331.918 63.4709C330.355 63.4709 328.986 63.4235 327.911 63.373C327.766 63.7645 327.674 63.9982 327.518 64.396L320.97 80.9543V80.9543ZM351.913 80.9543C351.767 80.9543 351.618 80.8564 351.618 80.367V69.6565C351.618 65.6149 352.401 65.176 354.405 65.0307C354.699 64.7371 354.699 63.6667 354.405 63.373C353.282 63.4235 350.762 63.4709 348.442 63.4709C345.738 63.4709 343.554 63.4235 341.5 63.373C341.206 63.6667 341.206 64.7371 341.5 65.0307C344.483 65.176 345.266 65.6149 345.266 69.6565V78.4219C345.266 82.4636 344.483 82.8994 341.5 83.0478C341.206 83.3383 341.206 84.4087 341.5 84.7023C343.602 84.655 345.738 84.6044 348.442 84.6044C350.005 84.6044 351.374 84.655 352.452 84.7023C352.598 84.3139 352.686 84.0708 352.842 83.6793L359.391 67.1242C359.54 67.1242 359.685 67.2221 359.685 67.7083V78.4219C359.685 82.4636 358.902 82.8994 356.899 83.0478C356.604 83.3383 356.604 84.4087 356.899 84.7023C358.024 84.655 360.541 84.6044 362.862 84.6044C365.569 84.6044 367.753 84.655 369.803 84.7023C370.098 84.4087 370.098 83.3383 369.803 83.0478C366.821 82.8994 366.041 82.4636 366.041 78.4219V69.6565C366.041 65.6149 366.821 65.176 369.803 65.0307C370.098 64.7371 370.098 63.6667 369.803 63.373C367.702 63.4235 365.569 63.4709 362.862 63.4709C361.299 63.4709 359.929 63.4235 358.855 63.373C358.706 63.7645 358.617 63.9982 358.462 64.396L351.913 80.9543V80.9543ZM362.326 55.1918C362.326 54.074 361.492 53.3414 360.272 53.3414C359.292 53.3414 358.268 54.1719 358.268 55.1444C358.268 55.4602 358.364 55.7696 358.364 56.0696C358.364 57.3357 357.875 58.3083 356.018 58.3083C354.113 58.3083 353.672 57.3357 353.672 56.0696C353.672 55.8896 353.771 55.2833 353.771 55.097C353.771 54.1719 352.94 53.3414 351.815 53.3414C350.642 53.3414 349.713 54.2192 349.713 55.2896C349.713 58.4567 352.645 60.3544 355.97 60.3544C359.245 60.3544 362.326 58.4062 362.326 55.1918V55.1918ZM394.93 71.8953C394.93 68.3904 397.228 65.4191 399.035 65.4191C401.872 65.4191 404.072 67.7557 404.072 73.7456C404.072 80.0765 401.821 82.8994 400.062 82.8994C397.618 82.8994 394.93 81.4406 394.93 71.8953V71.8953ZM400.16 62.9846C395.564 62.9846 392.436 66.0032 391.412 68.0493C391.9 65.5643 392.341 63.4709 393.022 62.0595C394.442 58.9903 395.127 58.0178 400.306 58.0178C404.706 58.0178 406.956 55.7285 408.079 50.6165H406.662C405.831 53.1962 403.045 53.6824 399.035 53.6824C394.147 53.6824 392.284 57.7746 390.971 60.8912C389.992 63.2025 388.575 67.3673 388.575 71.6016C388.575 82.17 394.537 85.1886 399.476 85.1886C407.102 85.1886 410.916 79.5397 410.916 72.6752C410.916 67.9009 408.031 62.9846 400.16 62.9846ZM426.232 82.2426C426.558 84.2161 427.877 85.0907 430.029 85.0907C432.727 85.0907 434.622 84.0708 436.432 82.3657C436.318 81.7974 436.115 81.4058 435.551 81.0017C434.917 81.4879 434.429 81.6837 433.5 81.6837C432.423 81.6837 432.131 80.8059 432.131 78.4219L432.229 71.409C432.229 64.396 427.877 62.9846 423.861 62.9846C420.276 62.9846 414.776 65.0118 414.776 68.2262C414.776 69.6218 415.372 70.6859 417.312 70.6859C419.037 70.6859 420.349 69.6155 420.349 68.4377C420.349 67.7967 420.006 66.9758 420.121 66.1327C420.194 65.5991 420.545 65.0307 422.19 65.0307C424.251 65.0307 425.972 65.9054 425.972 72.091L422.688 73.1141C417.547 74.7181 413.946 76.1327 413.946 79.9786C413.946 83.3383 415.803 85.0907 420.057 85.0907C421.474 85.0907 424.308 83.534 425.921 82.2678L426.232 82.2426V82.2426ZM425.972 73.9887V80.4175C424.749 81.39 423.528 82.17 422.647 82.17C420.545 82.17 419.813 80.7585 419.813 79.2492C419.813 77.4462 419.965 75.9464 423.43 74.816L425.972 73.9887V73.9887ZM456.034 69.6565V72.3815H447.97V69.6565C447.97 65.6149 448.75 65.176 450.757 65.0307C451.048 64.7371 451.048 63.6667 450.757 63.373C449.679 63.4235 447.137 63.4709 444.791 63.4709C442.103 63.4709 439.951 63.4235 437.849 63.373C437.558 63.6667 437.558 64.7371 437.849 65.0307C440.832 65.176 441.615 65.6149 441.615 69.6565V78.4219C441.615 82.4636 440.832 82.8994 437.849 83.0478C437.558 83.3383 437.558 84.4087 437.849 84.7023C439.903 84.655 442.103 84.6044 444.791 84.6044C447.137 84.6044 449.631 84.655 450.757 84.7023C451.048 84.4087 451.048 83.3383 450.757 83.0478C448.75 82.8994 447.97 82.4636 447.97 78.4219V74.2824H456.034V78.4219C456.034 82.4636 455.251 82.8994 453.248 83.0478C452.956 83.3383 452.956 84.4087 453.248 84.7023C454.373 84.655 456.865 84.6044 459.214 84.6044C461.902 84.6044 464.101 84.655 466.152 84.7023C466.447 84.4087 466.447 83.3383 466.152 83.0478C463.173 82.8994 462.39 82.4636 462.39 78.4219V69.6565C462.39 65.6149 463.173 65.176 466.152 65.0307C466.447 64.7371 466.447 63.6667 466.152 63.373C464.051 63.4235 461.902 63.4709 459.214 63.4709C456.865 63.4709 454.323 63.4235 453.248 63.373C452.956 63.6667 452.956 64.7371 453.248 65.0307C455.251 65.176 456.034 65.6149 456.034 69.6565V69.6565ZM478.914 73.8908C480.087 73.7929 481.894 74.5729 482.676 76.2306C483.263 77.4968 484.239 79.9312 485.317 81.7816C486.734 84.3613 488.395 84.7023 490.645 84.7023L494.994 84.6044C495.257 84.1087 495.314 83.6066 494.994 83.0478C493.089 82.8267 492.405 82.3657 490.988 79.7828C489.52 77.1557 488.886 75.498 488.151 74.5255C487.076 73.1141 485.805 72.5268 484.68 72.2363V71.9931C485.479 71.2953 486.204 70.4586 486.781 69.6565C488.071 67.8283 489.089 67.4557 490.595 67.9009C492.176 68.3651 494.081 67.0989 493.821 65.176C493.593 63.5372 492.649 62.9846 490.988 62.9846C488.934 62.9846 487.273 64.835 486.344 66.1485C485.415 67.4652 483.703 69.6565 482.822 70.4838C481.551 71.6995 480.036 72.2363 478.914 72.2836V69.6565C478.914 65.6149 479.694 65.176 481.7 65.0307C481.992 64.7371 481.992 63.6667 481.7 63.373C480.622 63.4235 478.08 63.4709 475.735 63.4709C473.047 63.4709 470.894 63.4235 468.793 63.373C468.501 63.6667 468.501 64.7371 468.793 65.0307C471.776 65.176 472.558 65.6149 472.558 69.6565V78.4219C472.558 82.4636 471.776 82.8994 468.793 83.0478C468.501 83.3383 468.501 84.4087 468.793 84.7023C470.847 84.655 473.047 84.6044 475.735 84.6044C478.08 84.6044 480.575 84.655 481.7 84.7023C481.992 84.4087 481.992 83.3383 481.7 83.0478C479.694 82.8994 478.914 82.4636 478.914 78.4219V73.8908V73.8908ZM507.461 80.9543C507.315 80.9543 507.166 80.8564 507.166 80.367V69.6565C507.166 65.6149 507.949 65.176 509.952 65.0307C510.247 64.7371 510.247 63.6667 509.952 63.373C508.83 63.4235 506.31 63.4709 503.99 63.4709C501.286 63.4709 499.102 63.4235 497.048 63.373C496.753 63.6667 496.753 64.7371 497.048 65.0307C500.031 65.176 500.814 65.6149 500.814 69.6565V78.4219C500.814 82.4636 500.031 82.8994 497.048 83.0478C496.753 83.3383 496.753 84.4087 497.048 84.7023C499.15 84.655 501.286 84.6044 503.99 84.6044C505.553 84.6044 506.922 84.655 507.997 84.7023C508.146 84.3139 508.234 84.0708 508.39 83.6793L514.939 67.1242C515.088 67.1242 515.233 67.2221 515.233 67.7083V78.4219C515.233 82.4636 514.45 82.8994 512.447 83.0478C512.152 83.3383 512.152 84.4087 512.447 84.7023C513.572 84.655 516.089 84.6044 518.409 84.6044C521.116 84.6044 523.3 84.655 525.351 84.7023C525.646 84.4087 525.646 83.3383 525.351 83.0478C522.369 82.8994 521.589 82.4636 521.589 78.4219V69.6565C521.589 65.6149 522.369 65.176 525.351 65.0307C525.646 64.7371 525.646 63.6667 525.351 63.373C523.25 63.4235 521.116 63.4709 518.409 63.4709C516.847 63.4709 515.477 63.4235 514.403 63.373C514.254 63.7645 514.165 63.9982 514.01 64.396L507.461 80.9543V80.9543Z" fill="black"/>
<path d="M157.284 22.6586C158.013 20.7799 159.03 20.5778 160.4 20.4862C160.587 20.2968 160.587 19.6147 160.4 19.4284C159.579 19.46 158.688 19.4916 157.471 19.4916C156.193 19.4916 154.478 19.46 153.328 19.4284C153.141 19.6147 153.141 20.2968 153.328 20.4862C154.51 20.5778 155.918 20.7641 155.477 21.945L152.237 30.4799C152.158 30.6915 152.006 30.6757 151.946 30.5431L147.904 21.6956C147.473 20.7483 148.716 20.5778 150.209 20.4862C150.396 20.2968 150.396 19.6147 150.209 19.4284C149.058 19.46 145.942 19.4916 144.725 19.4916C143.448 19.4916 141.704 19.46 140.55 19.4284C140.363 19.6147 140.363 20.2968 140.55 20.4862C141.764 20.6094 142.725 20.7325 143.384 22.1597L149.775 35.9456C149.026 37.8686 148.31 37.9002 147.375 37.9002C146.906 37.9002 146.472 37.5276 146.221 37.1866C145.952 36.814 145.41 36.5014 144.633 36.5014C143.635 36.5014 143.169 37.4044 143.169 38.2728C143.169 39.2642 144.633 40.4136 146.5 40.4136C149.305 40.4136 151.353 37.9096 152.672 34.5153L157.284 22.6586V22.6586ZM155.445 15.3331C155.445 14.6163 154.821 14.3069 154.044 14.3069C153.42 14.3069 152.767 14.6795 152.767 15.3015C152.767 15.5004 152.827 15.6994 152.827 15.8888C152.827 16.5045 152.516 16.6972 151.331 16.6972C150.117 16.6972 149.838 16.5519 149.838 15.8888C149.838 15.7752 149.898 15.3899 149.898 15.2699C149.898 14.6795 149.369 14.3069 148.652 14.3069C147.904 14.3069 147.22 14.7111 147.22 15.3931C147.22 17.4108 149.182 18.0012 151.302 18.0012C153.388 18.0012 155.445 17.3792 155.445 15.3331V15.3331ZM164.888 39.8231C169.408 39.8231 171.12 37.8055 171.12 35.6015C171.12 33.1291 168.492 32.365 167.639 32.2197L167.63 32.125C169.624 31.7082 170.591 30.3568 170.591 29.1443C170.591 26.3214 167.88 25.7309 165.107 25.7309C163.392 25.7309 161.43 26.0404 160.431 26.4761C160.152 27.4708 159.965 28.6485 159.965 29.7663C160.276 29.9842 160.618 30.0157 161.179 29.921C161.959 28.0296 163.173 27.035 164.609 27.035C165.791 27.035 166.508 27.796 166.508 29.2706C166.508 30.5588 166.492 31.5977 164.295 31.5977H163.332C163.113 31.5977 162.863 31.784 162.863 32.0934C162.863 32.3744 163.05 32.9649 163.332 32.9649H165.043C166.603 32.9649 166.882 34.3921 166.882 35.8193C166.882 38.0075 165.652 38.5191 164.825 38.5191C163.703 38.5191 163.189 37.9475 162.767 36.7508C162.527 36.072 161.959 35.4783 161.088 35.4783C160.213 35.4783 159.778 36.1604 159.778 37.0003C159.778 38.2096 161.633 39.8231 164.888 39.8231V39.8231ZM177.57 31.4114C177.57 29.1758 179.038 27.2845 180.189 27.2845C181.999 27.2845 183.4 28.7748 183.4 32.5923C183.4 36.6277 181.967 38.4275 180.845 38.4275C179.285 38.4275 177.57 37.496 177.57 31.4114ZM180.905 25.7309C177.976 25.7309 175.982 27.6571 175.329 28.958C175.64 27.376 175.919 26.0404 176.356 25.1405C177.26 23.1859 177.697 22.5639 181 22.5639C183.805 22.5639 185.238 21.1051 185.955 17.8465H185.051C184.522 19.4916 182.744 19.801 180.189 19.801C177.073 19.801 175.884 22.4092 175.047 24.3953C174.423 25.8699 173.519 28.5254 173.519 31.2251C173.519 37.9633 177.323 39.8863 180.471 39.8863C185.33 39.8863 187.761 36.2867 187.761 31.9071C187.761 28.8664 185.923 25.7309 180.905 25.7309V25.7309ZM194.462 30.9788C194.494 29.8894 194.659 28.7211 195.087 28.0896C195.578 27.3508 196.415 27.035 196.767 27.035C197.61 27.035 198.764 27.8433 198.764 30.3252C198.764 30.5115 198.764 30.9157 198.7 30.9788H194.462V30.9788ZM202.377 35.5099C201.1 36.814 199.417 37.155 198.231 37.155C195.803 37.155 194.307 35.7562 194.307 32.7155C194.307 32.4976 194.339 32.3744 194.339 32.2197H201.816C202.564 32.2197 202.72 31.6924 202.72 31.2567C202.72 28.6169 201.693 25.7309 197.112 25.7309C193.838 25.7309 190.101 28.6169 190.101 33.3659C190.101 35.1847 190.76 37.0729 192.094 38.2728C193.261 39.3274 194.798 39.8231 197.017 39.8231C199.166 39.8231 201.287 38.7369 202.843 36.473C202.843 36.0688 202.688 35.5099 202.377 35.5099V35.5099ZM211.478 32.6839C212.226 32.6239 213.376 33.1196 213.877 34.1743C214.251 34.9826 214.873 36.533 215.56 37.7139C216.464 39.359 217.522 39.5768 218.955 39.5768L221.729 39.5137C221.897 39.1979 221.932 38.879 221.729 38.5191C220.515 38.3801 220.077 38.0865 219.174 36.4414C218.239 34.7647 217.833 33.7101 217.367 33.0881C216.682 32.1882 215.871 31.8156 215.155 31.6293V31.4745C215.662 31.0293 216.125 30.4957 216.495 29.9842C217.313 28.819 217.963 28.5822 218.923 28.8664C219.931 29.16 221.149 28.3549 220.981 27.1266C220.835 26.0814 220.233 25.7309 219.174 25.7309C217.865 25.7309 216.806 26.9119 216.213 27.7486C215.621 28.5854 214.53 29.9842 213.969 30.5115C213.161 31.2882 212.194 31.6293 211.478 31.6608V29.9842C211.478 27.4076 211.975 27.1266 213.253 27.035C213.44 26.8487 213.44 26.1667 213.253 25.9804C212.568 26.0088 210.948 26.0404 209.452 26.0404C207.737 26.0404 206.365 26.0088 205.027 25.9804C204.84 26.1667 204.84 26.8487 205.027 27.035C206.926 27.1266 207.427 27.4076 207.427 29.9842V35.5699C207.427 38.1496 206.926 38.4275 205.027 38.5191C204.84 38.7054 204.84 39.3905 205.027 39.5768C206.336 39.5453 207.737 39.5137 209.452 39.5137C210.948 39.5137 212.536 39.5453 213.253 39.5768C213.44 39.3905 213.44 38.7054 213.253 38.5191C211.975 38.4275 211.478 38.1496 211.478 35.5699V32.6839V32.6839ZM229.675 37.1866C229.584 37.1866 229.488 37.1234 229.488 36.814V29.9842C229.488 27.4076 229.989 27.1266 231.267 27.035C231.454 26.8487 231.454 26.1667 231.267 25.9804C230.55 26.0088 228.943 26.0404 227.463 26.0404C225.739 26.0404 224.347 26.0088 223.038 25.9804C222.851 26.1667 222.851 26.8487 223.038 27.035C224.94 27.1266 225.437 27.4076 225.437 29.9842V35.5699C225.437 38.1496 224.94 38.4275 223.038 38.5191C222.851 38.7054 222.851 39.3905 223.038 39.5768C224.379 39.5453 225.739 39.5137 227.463 39.5137C228.461 39.5137 229.333 39.5453 230.018 39.5768C230.113 39.3274 230.17 39.1727 230.268 38.9232L234.443 28.3707C234.538 28.3707 234.63 28.4307 234.63 28.7433V35.5699C234.63 38.1496 234.132 38.4275 232.855 38.5191C232.668 38.7054 232.668 39.3905 232.855 39.5768C233.571 39.5453 235.178 39.5137 236.658 39.5137C238.38 39.5137 239.774 39.5453 241.084 39.5768C241.271 39.3905 241.271 38.7054 241.084 38.5191C239.182 38.4275 238.684 38.1496 238.684 35.5699V29.9842C238.684 27.4076 239.182 27.1266 241.084 27.035C241.271 26.8487 241.271 26.1667 241.084 25.9804C239.743 26.0088 238.38 26.0404 236.658 26.0404C235.66 26.0404 234.788 26.0088 234.1 25.9804C234.009 26.2267 233.951 26.3782 233.853 26.6308L229.675 37.1866V37.1866ZM255.075 36.814C255.075 36.4414 255.012 35.8509 254.669 35.8509C253.424 37.0003 252.362 37.5907 251.458 37.5907C249.122 37.5907 247.284 35.9141 247.284 32.1881C247.284 28.7433 248.063 27.035 249.715 27.035C250.869 27.035 251.335 28.2444 251.43 29.239C251.522 30.0757 252.362 30.6978 253.36 30.6978C254.359 30.6978 255.075 29.921 255.075 28.958C255.075 27.5623 253.392 25.7309 249.994 25.7309C246.317 25.7309 243.077 28.6801 243.077 33.2744C243.077 35.2826 243.797 37.0761 245.008 38.2096C246.234 39.3527 247.642 39.8231 249.87 39.8231C251.74 39.8231 253.889 38.5191 255.075 36.814ZM262.118 35.7372C262.118 38.3043 261.776 38.4275 259.874 38.5191C259.687 38.7054 259.687 39.3905 259.874 39.5768C261.183 39.5453 262.575 39.5137 264.299 39.5137C265.903 39.5137 267.212 39.5453 268.413 39.5768C268.6 39.3905 268.6 38.7054 268.413 38.5191C266.512 38.4275 266.169 38.3043 266.169 35.7372V27.2529H266.699C268.99 27.2529 269.627 28.0833 270.157 30.5936C270.563 30.7546 271.374 30.5178 271.374 30.4704C271.187 29.0464 271.06 27.6823 271.029 25.8857C270.312 25.9488 267.665 26.072 266.106 26.072H262.178C260.622 26.072 258.565 25.9804 257.319 25.8857C257.287 27.6823 257.164 29.0464 256.945 30.4704C256.882 30.502 257.681 30.6473 258.191 30.5936C258.72 28.0833 259.421 27.2529 261.649 27.2529H262.118V35.7372V35.7372ZM280.284 27.035C282.405 27.035 283.838 29.5484 283.838 33.8017C283.838 37.5339 282.373 38.5191 281.251 38.5191C278.696 38.5191 277.698 34.7016 277.698 32.406C277.698 29.5484 278.199 27.035 280.284 27.035V27.035ZM273.336 33.0881C273.336 37.1455 276.56 39.8231 280.753 39.8231C282.95 39.8231 284.804 39.1979 286.082 38.0549C287.654 36.6466 288.199 34.5374 288.199 32.8102C288.199 28.7464 285.413 25.7309 280.785 25.7309C278.199 25.7309 276.271 26.6151 275.038 28.0296C273.859 29.3779 273.336 31.2504 273.336 33.0881ZM301.788 29.9842V31.7208H296.647V29.9842C296.647 27.4076 297.144 27.1266 298.422 27.035C298.609 26.8487 298.609 26.1667 298.422 25.9804C297.737 26.0088 296.117 26.0404 294.621 26.0404C292.906 26.0404 291.534 26.0088 290.196 25.9804C290.009 26.1667 290.009 26.8487 290.196 27.035C292.095 27.1266 292.596 27.4076 292.596 29.9842V35.5699C292.596 38.1496 292.095 38.4275 290.196 38.5191C290.009 38.7054 290.009 39.3905 290.196 39.5768C291.505 39.5453 292.906 39.5137 294.621 39.5137C296.117 39.5137 297.705 39.5453 298.422 39.5768C298.609 39.3905 298.609 38.7054 298.422 38.5191C297.144 38.4275 296.647 38.1496 296.647 35.5699V32.9333H301.788V35.5699C301.788 38.1496 301.291 38.4275 300.013 38.5191C299.826 38.7054 299.826 39.3905 300.013 39.5768C300.729 39.5453 302.318 39.5137 303.814 39.5137C305.529 39.5137 306.93 39.5453 308.239 39.5768C308.426 39.3905 308.426 38.7054 308.239 38.5191C306.337 38.4275 305.839 38.1496 305.839 35.5699V29.9842C305.839 27.4076 306.337 27.1266 308.239 27.035C308.426 26.8487 308.426 26.1667 308.239 25.9804C306.898 26.0088 305.529 26.0404 303.814 26.0404C302.318 26.0404 300.698 26.0088 300.013 25.9804C299.826 26.1667 299.826 26.8487 300.013 27.035C301.291 27.1266 301.788 27.4076 301.788 29.9842ZM328.589 19.2106C327.343 19.2106 320.018 19.4284 318.772 19.4284C318.461 19.6147 318.461 20.2968 318.772 20.4862C320.487 20.5778 321.358 20.7009 321.358 23.2775V35.7278C321.358 38.3043 320.487 38.4275 318.772 38.5191C318.461 38.7054 318.461 39.3905 318.772 39.5768C320.018 39.5453 322.325 39.5137 323.571 39.5137C324.817 39.5137 327.061 39.5453 328.307 39.5768C328.62 39.3905 328.62 38.7054 328.307 38.5191C326.595 38.4275 325.72 38.3043 325.72 35.7278V23.2459C325.72 21.1367 325.939 20.4862 327.59 20.4862C329.397 20.4862 331.486 21.2283 331.486 25.0173C331.486 28.2444 330.583 29.6116 328.028 29.6116C327.559 29.6116 326.906 29.58 326.468 29.5169C326.468 30.1073 326.655 30.5431 327.093 30.8209C327.53 30.8841 327.435 30.9157 328.183 30.9157C330.931 30.9157 332.852 30.4483 334.104 29.4253C335.651 28.1528 336.193 26.1383 336.193 24.49C336.193 23.2428 335.724 21.3735 333.794 20.2368C332.64 19.5579 330.925 19.2106 328.589 19.2106ZM341.211 30.9788C341.239 29.8894 341.407 28.7211 341.832 28.0896C342.327 27.3508 343.163 27.035 343.515 27.035C344.358 27.035 345.509 27.8433 345.509 30.3252C345.509 30.5115 345.509 30.9157 345.449 30.9788H341.211ZM349.126 35.5099C347.848 36.814 346.165 37.155 344.98 37.155C342.549 37.155 341.052 35.7562 341.052 32.7155C341.052 32.4976 341.084 32.3744 341.084 32.2197H348.565C349.313 32.2197 349.468 31.6924 349.468 31.2567C349.468 28.6169 348.438 25.7309 343.858 25.7309C340.586 25.7309 336.846 28.6169 336.846 33.3659C336.846 35.1847 337.505 37.0729 338.84 38.2728C340.01 39.3274 341.547 39.8231 343.766 39.8231C345.915 39.8231 348.035 38.7369 349.592 36.473C349.592 36.0688 349.436 35.5099 349.126 35.5099V35.5099ZM364.084 36.814C364.084 36.4414 364.021 35.8509 363.678 35.8509C362.433 37.0003 361.371 37.5907 360.467 37.5907C358.131 37.5907 356.293 35.9141 356.293 32.1881C356.293 28.7433 357.073 27.035 358.724 27.035C359.878 27.035 360.344 28.2444 360.436 29.239C360.531 30.0757 361.371 30.6978 362.369 30.6978C363.368 30.6978 364.084 29.921 364.084 28.958C364.084 27.5623 362.401 25.7309 359.003 25.7309C355.326 25.7309 352.086 28.6801 352.086 33.2744C352.086 35.2826 352.806 37.0761 354.017 38.2096C355.244 39.3527 356.651 39.8231 358.879 39.8231C360.749 39.8231 362.899 38.5191 364.084 36.814ZM375.8 27.4392C377.077 27.5307 377.578 27.5939 377.578 30.0031V35.5825C377.578 38.1528 377.077 38.4275 375.8 38.5191C375.613 38.7054 375.613 39.3905 375.8 39.5768C376.519 39.5453 378.123 39.5137 379.603 39.5137C381.328 39.5137 382.719 39.5453 384.028 39.5768C384.215 39.3905 384.215 38.7054 384.028 38.5191C382.127 38.4275 381.629 38.1528 381.629 35.5825V30.0031C381.629 27.4076 382.127 27.1266 384.028 27.035C384.215 26.8487 384.215 26.1667 384.028 25.9804C382.688 26.0404 379.603 26.072 379.603 26.072H370.411C370.411 26.0404 367.324 26.0088 365.986 25.9804C365.796 26.1667 365.796 26.8487 365.986 27.035C367.885 27.1266 368.385 27.4076 368.385 29.9842V35.5699C368.385 38.1496 367.885 38.4275 365.986 38.5191C365.796 38.7054 365.796 39.3905 365.986 39.5768C367.292 39.5453 368.687 39.5137 370.411 39.5137C371.891 39.5137 373.495 39.5453 374.212 39.5768C374.399 39.3905 374.399 38.7054 374.212 38.5191C372.934 38.4275 372.436 38.1496 372.436 35.5699V29.9842C372.436 27.6255 372.934 27.5307 374.212 27.4392H375.8V27.4392ZM392.409 44.73C392.904 43.8585 393.376 42.7439 393.75 41.8124C396.245 35.8193 397.769 32.466 399.421 28.9895C399.858 28.0896 400.793 27.1266 401.947 27.035C402.134 26.8487 402.134 26.1667 401.947 25.9804C401.167 26.0088 400.606 26.0404 399.735 26.0404C398.644 26.0404 397.582 26.0088 396.432 25.9804C396.245 26.1667 396.245 26.8487 396.432 27.035C397.427 27.1266 398.426 27.2845 397.928 28.3991L394.717 35.5699C394.707 35.5983 394.701 35.6173 394.695 35.633C394.695 35.6078 394.682 35.5667 394.654 35.5099L391.756 29.0211C391.189 27.7486 390.885 27.1897 392.783 27.035C392.97 26.8487 392.97 26.1667 392.783 25.9804C391.633 26.0088 389.763 26.0404 388.64 26.0404C387.582 26.0404 385.803 26.0088 385.182 25.9804C384.995 26.1667 384.995 26.8487 385.182 27.035C386.552 27.1582 386.789 27.3823 387.642 29.3306L391.664 38.5191C392.194 39.2642 392.783 39.8231 392.536 40.382L391.798 42.0903C391.389 43.047 391.008 43.6122 390.137 43.6122C389.576 43.6122 389.48 43.4891 389.046 43.4891C387.861 43.4891 387.176 44.2942 387.176 44.9163C387.176 45.3236 387.252 45.8067 387.55 46.1572C387.842 46.4982 388.349 46.7161 388.764 46.7161C389.176 46.7161 390.111 46.6087 390.542 46.4066C391.195 46.094 392.064 45.3457 392.409 44.73V44.73ZM407.618 31.4114C407.618 29.1758 409.082 27.2845 410.236 27.2845C412.043 27.2845 413.447 28.7748 413.447 32.5923C413.447 36.6277 412.011 38.4275 410.889 38.4275C409.333 38.4275 407.618 37.496 407.618 31.4114V31.4114ZM410.953 25.7309C408.024 25.7309 406.03 27.6571 405.374 28.958C405.688 27.376 405.967 26.0404 406.404 25.1405C407.307 23.1859 407.745 22.5639 411.048 22.5639C413.85 22.5639 415.286 21.1051 416.002 17.8465H415.099C414.569 19.4916 412.791 19.801 410.236 19.801C407.12 19.801 405.932 22.4092 405.095 24.3953C404.47 25.8699 403.567 28.5254 403.567 31.2251C403.567 37.9633 407.371 39.8863 410.518 39.8863C415.378 39.8863 417.809 36.2867 417.809 31.9071C417.809 28.8664 415.97 25.7309 410.953 25.7309V25.7309ZM431.49 26.072H424.976C423.461 26.0404 422.43 26.0088 421.768 25.9804C421.625 26.3151 421.641 26.7698 421.768 27.035C423.667 27.1266 423.762 27.4265 423.762 30.8525C423.762 34.1111 423.73 35.8193 423.293 37.0918C422.89 38.2096 422.608 38.3043 422.202 38.3043C421.949 38.3043 421.657 38.0549 421.451 37.4644C421.159 36.6529 420.548 36.274 419.784 36.274C418.868 36.274 418.535 37.0761 418.535 37.8023C418.535 38.759 419.929 39.8863 421.362 39.8863C423.121 39.8863 424.139 39.1064 424.789 37.4044C425.35 35.9299 425.382 32.747 425.382 30.6346C425.382 28.2412 425.6 27.4392 427.458 27.4392C429.122 27.4392 429.464 27.4392 429.464 30.0031V35.5825C429.464 38.1528 428.653 38.4275 427.375 38.5191C427.188 38.7054 427.188 39.3905 427.375 39.5768C428.092 39.5453 429.886 39.5137 431.49 39.5137C433.214 39.5137 434.606 39.5453 435.915 39.5768C436.102 39.3905 436.102 38.7054 435.915 38.5191C434.013 38.4275 433.515 38.1528 433.515 35.5825V30.0031C433.515 27.4076 434.013 27.1266 435.915 27.035C436.102 26.8487 436.102 26.1667 435.915 25.9804C434.574 26.0088 431.49 26.0404 431.49 26.0404V26.072V26.072ZM444.235 37.1866C444.14 37.1866 444.048 37.1234 444.048 36.814V29.9842C444.048 27.4076 444.546 27.1266 445.823 27.035C446.011 26.8487 446.011 26.1667 445.823 25.9804C445.107 26.0088 443.503 26.0404 442.023 26.0404C440.299 26.0404 438.907 26.0088 437.598 25.9804C437.411 26.1667 437.411 26.8487 437.598 27.035C439.5 27.1266 439.997 27.4076 439.997 29.9842V35.5699C439.997 38.1496 439.5 38.4275 437.598 38.5191C437.411 38.7054 437.411 39.3905 437.598 39.5768C438.939 39.5453 440.299 39.5137 442.023 39.5137C443.021 39.5137 443.893 39.5453 444.578 39.5768C444.673 39.3274 444.73 39.1727 444.828 38.9232L449.003 28.3707C449.098 28.3707 449.19 28.4307 449.19 28.7433V35.5699C449.19 38.1496 448.692 38.4275 447.415 38.5191C447.228 38.7054 447.228 39.3905 447.415 39.5768C448.131 39.5453 449.735 39.5137 451.215 39.5137C452.94 39.5137 454.331 39.5453 455.64 39.5768C455.827 39.3905 455.827 38.7054 455.64 38.5191C453.742 38.4275 453.241 38.1496 453.241 35.5699V29.9842C453.241 27.4076 453.742 27.1266 455.64 27.035C455.827 26.8487 455.827 26.1667 455.64 25.9804C454.299 26.0088 452.94 26.0404 451.215 26.0404C450.22 26.0404 449.345 26.0088 448.66 25.9804C448.569 26.2267 448.508 26.3782 448.41 26.6308L444.235 37.1866V37.1866ZM463.774 32.6839C464.522 32.6239 465.676 33.1196 466.174 34.1743C466.548 34.9826 467.172 36.533 467.857 37.7139C468.76 39.359 469.819 39.5768 471.255 39.5768L474.028 39.5137C474.193 39.1979 474.228 38.879 474.028 38.5191C472.811 38.3801 472.377 38.0865 471.47 36.4414C470.535 34.7647 470.133 33.7101 469.663 33.0881C468.979 32.1882 468.167 31.8156 467.451 31.6293V31.4745C467.961 31.0293 468.424 30.4957 468.792 29.9842C469.613 28.819 470.263 28.5822 471.223 28.8664C472.231 29.16 473.445 28.3549 473.28 27.1266C473.134 26.0814 472.532 25.7309 471.47 25.7309C470.164 25.7309 469.102 26.9119 468.51 27.7486C467.92 28.5854 466.83 29.9842 466.269 30.5115C465.457 31.2882 464.49 31.6293 463.774 31.6608V29.9842C463.774 27.4076 464.272 27.1266 465.549 27.035C465.739 26.8487 465.739 26.1667 465.549 25.9804C464.864 26.0088 463.245 26.0404 461.749 26.0404C460.034 26.0404 458.664 26.0088 457.323 25.9804C457.136 26.1667 457.136 26.8487 457.323 27.035C459.225 27.1266 459.723 27.4076 459.723 29.9842V35.5699C459.723 38.1496 459.225 38.4275 457.323 38.5191C457.136 38.7054 457.136 39.3905 457.323 39.5768C458.633 39.5453 460.034 39.5137 461.749 39.5137C463.245 39.5137 464.833 39.5453 465.549 39.5768C465.739 39.3905 465.739 38.7054 465.549 38.5191C464.272 38.4275 463.774 38.1496 463.774 35.5699V32.6839V32.6839ZM483.699 38.0075C483.905 39.2642 484.749 39.8231 486.118 39.8231C487.839 39.8231 489.047 39.1727 490.201 38.0865C490.128 37.7234 489.998 37.4771 489.639 37.2181C489.234 37.5276 488.923 37.6507 488.33 37.6507C487.646 37.6507 487.459 37.0918 487.459 35.5699L487.522 31.1019C487.522 26.6308 484.749 25.7309 482.187 25.7309C479.902 25.7309 476.396 27.0255 476.396 29.0716C476.396 29.9621 476.773 30.6409 478.01 30.6409C479.113 30.6409 479.949 29.9589 479.949 29.2074C479.949 28.8001 479.731 28.2759 479.804 27.7391C479.848 27.3981 480.073 27.035 481.122 27.035C482.435 27.035 483.531 27.5939 483.531 31.5345L481.439 32.1881C478.162 33.2112 475.867 34.1111 475.867 36.5645C475.867 38.7054 477.049 39.8231 479.762 39.8231C480.666 39.8231 482.473 38.8317 483.5 38.0233L483.699 38.0075V38.0075ZM483.531 32.747V36.8456C482.752 37.4644 481.975 37.9633 481.414 37.9633C480.073 37.9633 479.604 37.0603 479.604 36.1004C479.604 34.951 479.705 33.9943 481.912 33.2744L483.531 32.747V32.747ZM503.415 36.814C503.415 36.4414 503.352 35.8509 503.01 35.8509C501.764 37.0003 500.702 37.5907 499.799 37.5907C497.463 37.5907 495.624 35.9141 495.624 32.1881C495.624 28.7433 496.404 27.035 498.055 27.035C499.206 27.035 499.675 28.2444 499.767 29.239C499.862 30.0757 500.702 30.6978 501.701 30.6978C502.696 30.6978 503.415 29.921 503.415 28.958C503.415 27.5623 501.732 25.7309 498.334 25.7309C494.657 25.7309 491.418 28.6801 491.418 33.2744C491.418 35.2826 492.137 37.0761 493.348 38.2096C494.575 39.3527 495.982 39.8231 498.211 39.8231C500.081 39.8231 502.23 38.5191 503.415 36.814ZM511.952 37.1866C511.86 37.1866 511.765 37.1234 511.765 36.814V29.9842C511.765 27.4076 512.265 27.1266 513.543 27.035C513.73 26.8487 513.73 26.1667 513.543 25.9804C512.827 26.0088 511.219 26.0404 509.739 26.0404C508.015 26.0404 506.623 26.0088 505.314 25.9804C505.127 26.1667 505.127 26.8487 505.314 27.035C507.216 27.1266 507.714 27.4076 507.714 29.9842V35.5699C507.714 38.1496 507.216 38.4275 505.314 38.5191C505.127 38.7054 505.127 39.3905 505.314 39.5768C506.655 39.5453 508.015 39.5137 509.739 39.5137C510.738 39.5137 511.609 39.5453 512.297 39.5768C512.389 39.3274 512.446 39.1727 512.544 38.9232L516.722 28.3707C516.814 28.3707 516.909 28.4307 516.909 28.7433V35.5699C516.909 38.1496 516.408 38.4275 515.131 38.5191C514.944 38.7054 514.944 39.3905 515.131 39.5768C515.847 39.5453 517.454 39.5137 518.935 39.5137C520.659 39.5137 522.051 39.5453 523.36 39.5768C523.547 39.3905 523.547 38.7054 523.36 38.5191C521.458 38.4275 520.96 38.1496 520.96 35.5699V29.9842C520.96 27.4076 521.458 27.1266 523.36 27.035C523.547 26.8487 523.547 26.1667 523.36 25.9804C522.019 26.0088 520.659 26.0404 518.935 26.0404C517.936 26.0404 517.065 26.0088 516.377 25.9804C516.285 26.2267 516.228 26.3782 516.129 26.6308L511.952 37.1866V37.1866Z" fill="black" fill-opacity="0.87"/>
<defs>
<radialGradient id="paint0_radial" cx="0" cy="0" r="1" gradientUnits="userSpaceOnUse" gradientTransform="translate(81.9426 31.1256) rotate(144.287) scale(86.545 88.9384)">
<stop stop-color="#E4A237"/>
<stop offset="0.501961" stop-color="#F0B644"/>
<stop offset="1" stop-color="#E7C66E"/>
</radialGradient>
</defs>
</svg>
